<?xml version="1.0" encoding="utf-8"?>
<!-- Generator: Adobe Illustrator 22.1.0, SVG Export Plug-In . SVG Version: 6.00 Build 0)  -->
<svg version="1.1" id="Lager_1" xmlns="http://www.w3.org/2000/svg" xmlns:xlink="http://www.w3.org/1999/xlink" x="0px" y="0px"
	 viewBox="0 0 184.9 53.4" style="enable-background:new 0 0 184.9 53.4;" xml:space="preserve">
<style type="text/css">
	.st0{fill:#FFFFFF;}
	.st1{fill:#020203;}
	.st2{fill:#E20D18;}
</style>
<g>
	<rect x="0.5" y="0.5" class="st0" width="183.9" height="52.4"/>
	<path class="st1" d="M183.9,1v51.4H1V1H183.9 M184.9,0H0v53.4h184.9V0L184.9,0z"/>
</g>
<path class="st2" d="M53.3,26.8C53.3,38.5,43.8,48,32,48c-11.7,0-21.3-9.5-21.3-21.3C10.8,15,20.3,5.5,32,5.5
	C43.8,5.5,53.3,15,53.3,26.8z"/>
<g>
	<g>
		<path class="st1" d="M77.1,30.5c0,0.7-0.2,1.4-0.5,2c-0.3,0.7-0.8,1.2-1.3,1.7c-0.6,0.5-1.4,0.9-2.2,1.2c-0.8,0.3-1.9,0.4-3.1,0.4
			c-1.3,0-2.4-0.1-3.4-0.4c-1-0.2-2.1-0.6-3.1-1.1v-3h0.2c0.9,0.7,1.9,1.3,3.1,1.7s2.3,0.6,3.3,0.6c1.5,0,2.6-0.3,3.4-0.8
			c0.8-0.5,1.2-1.3,1.2-2.2c0-0.8-0.2-1.4-0.6-1.7s-1-0.7-1.8-0.9c-0.6-0.2-1.2-0.3-1.9-0.4s-1.4-0.2-2.2-0.4
			c-1.6-0.3-2.7-0.9-3.5-1.7c-0.8-0.8-1.1-1.9-1.1-3.1c0-1.5,0.6-2.7,1.9-3.6c1.3-0.9,2.8-1.4,4.8-1.4c1.2,0,2.4,0.1,3.4,0.4
			c1,0.2,2,0.5,2.8,0.9v2.8h-0.2c-0.7-0.6-1.6-1-2.7-1.4c-1.1-0.4-2.2-0.6-3.4-0.6c-1.3,0-2.3,0.3-3,0.8c-0.8,0.5-1.1,1.2-1.1,2
			c0,0.7,0.2,1.3,0.6,1.7c0.4,0.4,1.1,0.7,2,1c0.5,0.1,1.2,0.2,2.2,0.4c0.9,0.2,1.7,0.3,2.4,0.5c1.3,0.3,2.3,0.9,3,1.6
			C76.7,28.2,77.1,29.2,77.1,30.5z"/>
		<path class="st1" d="M92.6,28.8c0,1.1-0.2,2.1-0.5,3c-0.3,0.9-0.7,1.6-1.3,2.3c-0.5,0.6-1.1,1-1.9,1.4s-1.5,0.5-2.3,0.5
			c-0.7,0-1.3-0.1-1.9-0.2c-0.6-0.2-1.1-0.4-1.7-0.7v5.6h-2.2V22.3h2.2v1.4c0.6-0.5,1.3-0.9,2-1.3c0.7-0.3,1.5-0.5,2.4-0.5
			c1.6,0,2.8,0.6,3.7,1.8C92.2,24.9,92.6,26.6,92.6,28.8z M90.3,28.8c0-1.6-0.3-2.8-0.8-3.6C88.9,24.4,88.1,24,87,24
			c-0.6,0-1.3,0.1-1.9,0.4c-0.7,0.3-1.3,0.6-1.9,1.1v7.5c0.6,0.3,1.2,0.5,1.6,0.6c0.5,0.1,1,0.2,1.6,0.2c1.2,0,2.2-0.4,2.9-1.3
			C89.9,31.7,90.3,30.5,90.3,28.8z"/>
		<path class="st1" d="M107.5,29.1h-9.8c0,0.8,0.1,1.5,0.4,2.1c0.2,0.6,0.6,1.1,1,1.5c0.4,0.4,0.9,0.7,1.5,0.9
			c0.6,0.2,1.2,0.3,1.9,0.3c0.9,0,1.8-0.2,2.7-0.5c0.9-0.4,1.6-0.7,2-1.1h0.1v2.4c-0.8,0.3-1.5,0.6-2.3,0.8
			c-0.8,0.2-1.6,0.3-2.5,0.3c-2.2,0-3.9-0.6-5.2-1.8s-1.9-2.9-1.9-5.1c0-2.2,0.6-3.9,1.8-5.2c1.2-1.3,2.7-1.9,4.7-1.9
			c1.8,0,3.2,0.5,4.1,1.6c1,1,1.5,2.5,1.5,4.5V29.1z M105.3,27.4c0-1.2-0.3-2.1-0.9-2.7c-0.6-0.6-1.5-1-2.7-1
			c-1.2,0-2.2,0.4-2.9,1.1c-0.7,0.7-1.1,1.6-1.2,2.6H105.3z"/>
		<path class="st1" d="M113.3,35.6h-2.2V17h2.2V35.6z"/>
		<path class="st1" d="M129.7,28.8c0,1.1-0.2,2.1-0.5,3c-0.3,0.9-0.7,1.6-1.3,2.3c-0.5,0.6-1.1,1-1.9,1.4s-1.5,0.5-2.3,0.5
			c-0.7,0-1.3-0.1-1.9-0.2c-0.6-0.2-1.1-0.4-1.7-0.7v5.6H118V22.3h2.2v1.4c0.6-0.5,1.3-0.9,2-1.3c0.7-0.3,1.5-0.5,2.4-0.5
			c1.6,0,2.8,0.6,3.7,1.8C129.3,24.9,129.7,26.6,129.7,28.8z M127.4,28.8c0-1.6-0.3-2.8-0.8-3.6c-0.5-0.8-1.4-1.2-2.5-1.2
			c-0.6,0-1.3,0.1-1.9,0.4c-0.7,0.3-1.3,0.6-1.9,1.1v7.5c0.6,0.3,1.2,0.5,1.6,0.6c0.5,0.1,1,0.2,1.6,0.2c1.2,0,2.2-0.4,2.9-1.3
			C127.1,31.7,127.4,30.5,127.4,28.8z"/>
		<path class="st1" d="M143.8,35.6h-2.2v-1.4c-0.2,0.1-0.5,0.3-0.8,0.6c-0.3,0.2-0.7,0.4-1,0.6c-0.4,0.2-0.8,0.3-1.3,0.5
			c-0.5,0.1-1.1,0.2-1.7,0.2c-1.2,0-2.2-0.4-3-1.2s-1.2-1.8-1.2-3c0-1,0.2-1.8,0.6-2.4c0.4-0.6,1-1.1,1.8-1.5
			c0.8-0.4,1.8-0.6,2.9-0.7c1.1-0.1,2.4-0.2,3.7-0.3v-0.3c0-0.5-0.1-0.9-0.3-1.3c-0.2-0.3-0.4-0.6-0.8-0.8c-0.3-0.2-0.7-0.3-1.1-0.4
			s-0.9-0.1-1.4-0.1c-0.6,0-1.2,0.1-2,0.2s-1.5,0.4-2.2,0.7h-0.1v-2.3c0.4-0.1,1.1-0.3,1.9-0.4c0.8-0.1,1.6-0.2,2.4-0.2
			c0.9,0,1.8,0.1,2.4,0.2c0.7,0.2,1.3,0.4,1.8,0.8c0.5,0.4,0.9,0.8,1.1,1.4s0.4,1.3,0.4,2.2V35.6z M141.5,32.3v-3.7
			c-0.7,0-1.5,0.1-2.4,0.2s-1.7,0.2-2.2,0.3c-0.6,0.2-1.2,0.5-1.6,0.9s-0.6,0.9-0.6,1.6c0,0.8,0.2,1.3,0.7,1.7s1.2,0.6,2.1,0.6
			c0.8,0,1.5-0.2,2.2-0.5C140.4,33.1,141,32.7,141.5,32.3z"/>
		<path class="st1" d="M159.3,35.6h-2.2v-1.5c-0.8,0.6-1.5,1.1-2.2,1.4s-1.5,0.5-2.3,0.5c-1.4,0-2.5-0.4-3.3-1.3s-1.2-2.1-1.2-3.8
			v-8.6h2.2v7.6c0,0.7,0,1.3,0.1,1.7c0.1,0.5,0.2,0.9,0.4,1.2c0.2,0.3,0.5,0.6,0.8,0.8c0.3,0.2,0.8,0.2,1.5,0.2
			c0.6,0,1.2-0.2,1.9-0.5c0.7-0.3,1.3-0.7,1.9-1.2v-9.9h2.2V35.6z"/>
		<path class="st1" d="M173.5,31.7c0,1.2-0.5,2.2-1.5,3s-2.4,1.2-4.1,1.2c-1,0-1.9-0.1-2.7-0.4c-0.8-0.2-1.5-0.5-2.1-0.8v-2.5h0.1
			c0.7,0.5,1.5,1,2.4,1.3c0.9,0.3,1.7,0.5,2.5,0.5c1,0,1.8-0.2,2.3-0.5c0.6-0.3,0.8-0.8,0.8-1.5c0-0.5-0.2-0.9-0.5-1.2
			s-0.9-0.5-1.7-0.7c-0.3-0.1-0.7-0.2-1.2-0.3c-0.5-0.1-1-0.2-1.4-0.3c-1.2-0.3-2-0.8-2.5-1.4c-0.5-0.6-0.7-1.3-0.7-2.2
			c0-0.5,0.1-1.1,0.3-1.5c0.2-0.5,0.6-0.9,1-1.3c0.4-0.4,1-0.7,1.7-0.9c0.7-0.2,1.5-0.3,2.3-0.3c0.8,0,1.6,0.1,2.4,0.3
			c0.8,0.2,1.5,0.4,2,0.7v2.4h-0.1c-0.6-0.4-1.3-0.8-2.1-1.1c-0.8-0.3-1.6-0.4-2.4-0.4c-0.8,0-1.5,0.2-2.1,0.5
			c-0.6,0.3-0.8,0.8-0.8,1.4c0,0.5,0.2,1,0.5,1.2c0.3,0.3,0.9,0.5,1.6,0.7c0.4,0.1,0.9,0.2,1.4,0.3s0.9,0.2,1.3,0.3
			c1,0.2,1.8,0.6,2.4,1.2C173.2,30,173.5,30.8,173.5,31.7z"/>
	</g>
</g>
<path class="st0" d="M28.7,37.5h-6.2c-0.5,0-0.9-0.4-0.9-0.9V16.9c0-0.5,0.4-0.9,0.9-0.9h6.2c0.5,0,0.9,0.4,0.9,0.9v19.7
	C29.6,37.1,29.2,37.5,28.7,37.5z"/>
<path class="st0" d="M41.5,37.6h-6.2c-0.5,0-0.9-0.4-0.9-0.9V16.9c0-0.5,0.4-0.9,0.9-0.9h6.2c0.5,0,0.9,0.4,0.9,0.9v19.7
	C42.4,37.2,42,37.6,41.5,37.6z"/>
</svg>
