<?xml version="1.0" encoding="utf-8"?>
<!-- Generator: Adobe Illustrator 22.1.0, SVG Export Plug-In . SVG Version: 6.00 Build 0)  -->
<svg version="1.1" id="Lager_1" xmlns="http://www.w3.org/2000/svg" xmlns:xlink="http://www.w3.org/1999/xlink" x="0px" y="0px"
	 viewBox="0 0 219.6 53.4" style="enable-background:new 0 0 219.6 53.4;" xml:space="preserve">
<style type="text/css">
	.st0{fill:#FFFFFF;}
	.st1{fill:#020203;}
	.st2{fill:#009739;}
	.st3{fill:#FFFFFF;stroke:#009739;stroke-width:3.871;stroke-linecap:round;stroke-miterlimit:10;}
	.st4{fill:none;stroke:#009739;stroke-width:1.9355;stroke-linecap:round;stroke-miterlimit:10;}
</style>
<g>
	<rect x="0.5" y="0.5" class="st0" width="218.5" height="52.4"/>
	<path class="st1" d="M218.5,1v51.4H1V1H218.5 M219.6,0H0v53.4h219.6V0L219.6,0z"/>
</g>
<g>
	<g>
		<path class="st1" d="M78.2,30.6c0,0.7-0.2,1.4-0.5,2c-0.3,0.7-0.8,1.2-1.4,1.7c-0.6,0.5-1.4,0.9-2.2,1.2c-0.8,0.3-1.9,0.4-3.1,0.4
			c-1.3,0-2.4-0.1-3.4-0.4c-1-0.2-2.1-0.6-3.1-1.1v-2.9h0.2c0.9,0.7,1.9,1.3,3.1,1.7c1.2,0.4,2.3,0.6,3.3,0.6c1.5,0,2.6-0.3,3.4-0.8
			c0.8-0.5,1.2-1.3,1.2-2.2c0-0.8-0.2-1.4-0.6-1.7s-1-0.7-1.8-0.9c-0.6-0.2-1.2-0.3-1.9-0.4c-0.7-0.1-1.4-0.2-2.2-0.4
			c-1.6-0.3-2.7-0.9-3.5-1.7s-1.1-1.9-1.1-3.1c0-1.5,0.6-2.7,1.9-3.6c1.3-0.9,2.8-1.4,4.8-1.4c1.2,0,2.4,0.1,3.4,0.4
			c1,0.2,2,0.5,2.8,0.9v2.8h-0.2c-0.7-0.6-1.6-1-2.7-1.4c-1.1-0.4-2.2-0.6-3.4-0.6c-1.3,0-2.3,0.3-3,0.8s-1.1,1.2-1.1,2
			c0,0.7,0.2,1.3,0.6,1.7c0.4,0.4,1.1,0.7,2,1c0.5,0.1,1.2,0.2,2.2,0.4c0.9,0.2,1.7,0.3,2.4,0.5c1.3,0.3,2.3,0.9,3,1.6
			C77.9,28.3,78.2,29.3,78.2,30.6z"/>
		<path class="st1" d="M93.6,28.8c0,1.1-0.2,2.1-0.5,3c-0.3,0.9-0.7,1.6-1.3,2.3c-0.5,0.6-1.1,1-1.8,1.4c-0.7,0.3-1.5,0.5-2.3,0.5
			c-0.7,0-1.3-0.1-1.9-0.2c-0.6-0.2-1.1-0.4-1.7-0.7v5.6h-2.2V22.3h2.2v1.4c0.6-0.5,1.3-0.9,2-1.3c0.7-0.3,1.5-0.5,2.4-0.5
			c1.6,0,2.8,0.6,3.7,1.8C93.2,25,93.6,26.7,93.6,28.8z M91.3,28.9c0-1.6-0.3-2.8-0.8-3.6c-0.5-0.8-1.4-1.2-2.5-1.2
			c-0.6,0-1.3,0.1-1.9,0.4c-0.7,0.3-1.3,0.6-1.9,1.1v7.5c0.6,0.3,1.2,0.5,1.6,0.6c0.5,0.1,1,0.2,1.6,0.2c1.2,0,2.2-0.4,2.9-1.3
			C91,31.8,91.3,30.5,91.3,28.9z"/>
		<path class="st1" d="M108.3,29.2h-9.8c0,0.8,0.1,1.5,0.4,2.1c0.2,0.6,0.6,1.1,1,1.5c0.4,0.4,0.9,0.7,1.5,0.9s1.2,0.3,1.9,0.3
			c0.9,0,1.8-0.2,2.7-0.5c0.9-0.4,1.6-0.7,2-1.1h0.1v2.4c-0.8,0.3-1.5,0.6-2.3,0.8s-1.6,0.3-2.5,0.3c-2.2,0-3.9-0.6-5.2-1.8
			c-1.2-1.2-1.9-2.9-1.9-5.1c0-2.2,0.6-3.9,1.8-5.2c1.2-1.3,2.7-1.9,4.7-1.9c1.8,0,3.2,0.5,4.1,1.6c1,1,1.5,2.5,1.5,4.5V29.2z
			 M106.2,27.5c0-1.2-0.3-2.1-0.9-2.7c-0.6-0.6-1.5-1-2.7-1c-1.2,0-2.2,0.4-2.9,1.1c-0.7,0.7-1.1,1.6-1.2,2.6H106.2z"/>
		<path class="st1" d="M114.1,35.6h-2.2V17.1h2.2V35.6z"/>
		<path class="st1" d="M129.4,34.1c0,2.3-0.5,3.9-1.5,5c-1,1.1-2.6,1.6-4.7,1.6c-0.7,0-1.4,0-2.1-0.1c-0.7-0.1-1.3-0.2-2-0.4v-2.3
			h0.1c0.4,0.1,0.9,0.3,1.7,0.5s1.6,0.3,2.4,0.3c0.8,0,1.4-0.1,1.9-0.3c0.5-0.2,0.9-0.4,1.2-0.8c0.3-0.3,0.5-0.7,0.6-1.1
			c0.1-0.4,0.2-0.9,0.2-1.5v-1.2c-0.7,0.5-1.3,0.9-1.9,1.2s-1.4,0.4-2.3,0.4c-1.6,0-2.8-0.6-3.8-1.7c-0.9-1.1-1.4-2.8-1.4-4.8
			c0-1.1,0.2-2.1,0.5-3c0.3-0.8,0.8-1.5,1.3-2.1c0.5-0.6,1.1-1,1.9-1.3c0.7-0.3,1.5-0.5,2.2-0.5c0.8,0,1.4,0.1,1.9,0.2
			s1.1,0.4,1.6,0.7l0.1-0.6h2.1V34.1z M127.2,32v-7.2c-0.6-0.3-1.1-0.5-1.7-0.6c-0.5-0.1-1-0.2-1.5-0.2c-1.2,0-2.2,0.4-2.9,1.2
			s-1.1,2-1.1,3.6c0,1.5,0.3,2.6,0.8,3.4c0.5,0.8,1.4,1.2,2.6,1.2c0.7,0,1.3-0.1,2-0.4S126.6,32.4,127.2,32z"/>
		<path class="st1" d="M142.2,24.8h-0.1c-0.3-0.1-0.7-0.1-1-0.2c-0.3,0-0.7-0.1-1.1-0.1c-0.7,0-1.4,0.2-2,0.5
			c-0.6,0.3-1.3,0.7-1.9,1.2v9.4H134V22.3h2.2v2c0.9-0.7,1.7-1.2,2.3-1.5c0.7-0.3,1.4-0.4,2.1-0.4c0.4,0,0.7,0,0.8,0
			c0.2,0,0.4,0.1,0.8,0.1V24.8z"/>
		<path class="st1" d="M154.8,35.6h-2.2v-1.4c-0.2,0.1-0.5,0.3-0.8,0.6s-0.7,0.4-1,0.6c-0.4,0.2-0.8,0.3-1.3,0.5
			c-0.5,0.1-1.1,0.2-1.7,0.2c-1.2,0-2.2-0.4-3-1.2c-0.8-0.8-1.2-1.8-1.2-3c0-1,0.2-1.8,0.6-2.4c0.4-0.6,1-1.1,1.8-1.5
			c0.8-0.4,1.8-0.6,2.9-0.7s2.4-0.2,3.7-0.3v-0.3c0-0.5-0.1-0.9-0.3-1.3c-0.2-0.3-0.4-0.6-0.8-0.8c-0.3-0.2-0.7-0.3-1.1-0.4
			C150,24,149.5,24,149,24c-0.6,0-1.2,0.1-2,0.2c-0.7,0.2-1.5,0.4-2.2,0.7h-0.1v-2.3c0.4-0.1,1.1-0.2,1.9-0.4
			c0.8-0.1,1.6-0.2,2.4-0.2c0.9,0,1.8,0.1,2.4,0.2c0.7,0.2,1.3,0.4,1.8,0.8c0.5,0.4,0.9,0.8,1.1,1.4c0.3,0.6,0.4,1.3,0.4,2.2V35.6z
			 M152.6,32.3v-3.7c-0.7,0-1.5,0.1-2.4,0.2s-1.7,0.2-2.2,0.3c-0.6,0.2-1.2,0.5-1.6,0.9s-0.6,0.9-0.6,1.6c0,0.8,0.2,1.3,0.7,1.7
			s1.2,0.6,2.1,0.6c0.8,0,1.5-0.2,2.2-0.5C151.4,33.1,152,32.8,152.6,32.3z M148.4,20.1H146v-2.3h2.4V20.1z M153.3,20.1h-2.4v-2.3
			h2.4V20.1z"/>
		<path class="st1" d="M170.3,35.6h-2.2v-7.6c0-0.6,0-1.2-0.1-1.7s-0.2-1-0.4-1.3c-0.2-0.3-0.5-0.6-0.9-0.7
			c-0.4-0.2-0.9-0.2-1.5-0.2c-0.6,0-1.2,0.2-1.9,0.5c-0.7,0.3-1.3,0.7-1.9,1.2v9.9h-2.2V22.3h2.2v1.5c0.7-0.6,1.4-1,2.2-1.4
			c0.7-0.3,1.5-0.5,2.3-0.5c1.4,0,2.5,0.4,3.3,1.3c0.8,0.9,1.1,2.1,1.1,3.7V35.6z"/>
		<path class="st1" d="M184.3,31.8c0,1.2-0.5,2.2-1.5,3c-1,0.8-2.4,1.2-4.1,1.2c-1,0-1.9-0.1-2.7-0.4c-0.8-0.2-1.5-0.5-2.1-0.8v-2.5
			h0.1c0.7,0.5,1.5,1,2.4,1.3s1.7,0.5,2.5,0.5c1,0,1.8-0.2,2.3-0.5c0.6-0.3,0.8-0.8,0.8-1.5c0-0.5-0.2-0.9-0.5-1.2s-0.9-0.5-1.7-0.7
			c-0.3-0.1-0.7-0.2-1.2-0.3c-0.5-0.1-1-0.2-1.4-0.3c-1.2-0.3-2-0.8-2.5-1.4c-0.5-0.6-0.7-1.3-0.7-2.2c0-0.5,0.1-1.1,0.3-1.5
			c0.2-0.5,0.6-0.9,1-1.3c0.4-0.4,1-0.7,1.7-0.9c0.7-0.2,1.5-0.3,2.3-0.3c0.8,0,1.6,0.1,2.4,0.3c0.8,0.2,1.5,0.4,2,0.7v2.4h-0.1
			c-0.6-0.4-1.3-0.8-2.1-1.1c-0.8-0.3-1.6-0.4-2.4-0.4c-0.8,0-1.5,0.2-2.1,0.5c-0.6,0.3-0.8,0.8-0.8,1.4c0,0.5,0.2,1,0.5,1.2
			c0.3,0.3,0.9,0.5,1.6,0.7c0.4,0.1,0.9,0.2,1.4,0.3c0.5,0.1,0.9,0.2,1.3,0.3c1,0.2,1.8,0.6,2.4,1.2C184,30,184.3,30.8,184.3,31.8z"
			/>
		<path class="st1" d="M198.7,29.2h-9.8c0,0.8,0.1,1.5,0.4,2.1s0.6,1.1,1,1.5c0.4,0.4,0.9,0.7,1.5,0.9c0.6,0.2,1.2,0.3,1.9,0.3
			c0.9,0,1.8-0.2,2.7-0.5c0.9-0.4,1.6-0.7,2-1.1h0.1v2.4c-0.8,0.3-1.5,0.6-2.3,0.8s-1.6,0.3-2.5,0.3c-2.2,0-3.9-0.6-5.2-1.8
			c-1.2-1.2-1.9-2.9-1.9-5.1c0-2.2,0.6-3.9,1.8-5.2c1.2-1.3,2.7-1.9,4.7-1.9c1.8,0,3.2,0.5,4.1,1.6s1.5,2.5,1.5,4.5V29.2z
			 M196.5,27.5c0-1.2-0.3-2.1-0.9-2.7s-1.5-1-2.7-1c-1.2,0-2.2,0.4-2.9,1.1c-0.7,0.7-1.1,1.6-1.2,2.6H196.5z"/>
		<path class="st1" d="M210.5,24.8h-0.1c-0.3-0.1-0.7-0.1-1-0.2c-0.3,0-0.7-0.1-1.1-0.1c-0.7,0-1.4,0.2-2,0.5
			c-0.6,0.3-1.3,0.7-1.9,1.2v9.4h-2.2V22.3h2.2v2c0.9-0.7,1.7-1.2,2.3-1.5c0.7-0.3,1.4-0.4,2.1-0.4c0.4,0,0.7,0,0.8,0
			c0.2,0,0.4,0.1,0.8,0.1V24.8z"/>
	</g>
</g>
<g>
	<path class="st0" d="M32.5,47.3c-11.2,0-20.3-9.1-20.3-20.3S21.3,6.7,32.5,6.7c11.2,0,20.3,9.1,20.3,20.3S43.7,47.3,32.5,47.3z"/>
	<path class="st2" d="M32.5,7.7c10.7,0,19.3,8.7,19.3,19.3c0,10.7-8.7,19.3-19.3,19.3c-10.7,0-19.3-8.7-19.3-19.3
		C13.2,16.3,21.8,7.7,32.5,7.7 M32.5,5.7c-11.7,0-21.3,9.5-21.3,21.3c0,11.7,9.5,21.3,21.3,21.3c11.7,0,21.3-9.5,21.3-21.3
		C53.7,15.2,44.2,5.7,32.5,5.7L32.5,5.7z"/>
</g>
<line class="st3" x1="26.7" y1="14.3" x2="34.4" y2="26.5"/>
<line class="st3" x1="25.3" y1="33.3" x2="34.5" y2="26.9"/>
<circle class="st2" cx="48.6" cy="36.2" r="12.9"/>
<g>
	<path class="st0" d="M41.3,29.8H44v5.4h0l4.2-5.4h3.4l-4.8,6.1l5,6.7h-3.3l-4.5-6h0v6h-2.7V29.8z"/>
	<path class="st0" d="M55.1,34.2v1.2h0c0.2-0.4,0.5-0.7,0.9-1c0.3-0.2,0.6-0.4,0.9-0.4c0.2,0,0.3,0,0.5,0v2.7
		c-0.2,0-0.4-0.1-0.6-0.1c-0.5,0-0.9,0.2-1.2,0.5c-0.3,0.4-0.4,0.9-0.4,1.5v3.7h-2.5v-8.3H55.1z"/>
</g>
<line class="st4" x1="16" y1="27" x2="18.4" y2="27"/>
<line class="st4" x1="32.7" y1="12.7" x2="32.7" y2="10.3"/>
<line class="st4" x1="32.5" y1="44.2" x2="32.5" y2="41.8"/>
</svg>
