<?xml version="1.0" encoding="utf-8"?>
<!-- Generator: Adobe Illustrator 23.1.1, SVG Export Plug-In . SVG Version: 6.00 Build 0)  -->
<svg version="1.1" id="Layer_1" xmlns="http://www.w3.org/2000/svg" xmlns:xlink="http://www.w3.org/1999/xlink" x="0px" y="0px"
	 viewBox="0 0 90.2 79" style="enable-background:new 0 0 90.2 79;" xml:space="preserve">
<style type="text/css">
	.st0{fill:#FFFFFF;}
</style>
<g>
	<g id="Layer_1-2">
		<g>
			<path class="st0" d="M11.9,32.9c-0.2,0-0.4,0-0.7-0.1c0,0-0.1,0-0.1,0C4.5,30.4,0,24,0,16.9c0-1.9,0.3-3.8,1-5.7
				C3.4,4.5,9.8,0,16.9,0c1.9,0,3.8,0.3,5.7,1c6.6,2.3,11.1,8.6,11.2,15.5c0,1.1-0.8,2-2,2c-1.1,0.1-2-0.8-2-2
				c-0.1-5.3-3.6-10.1-8.6-11.8C19.8,4.2,18.4,4,16.9,4C11.5,4,6.6,7.4,4.7,12.6C4.2,14,4,15.4,4,16.9c0,5.4,3.4,10.3,8.6,12.1
				c1,0.4,1.6,1.5,1.2,2.6C13.5,32.4,12.8,32.9,11.9,32.9z"/>
		</g>
	</g>
</g>
<g id="Tf5Lmf.tif">
	<path class="st0" d="M30.3,47.3c-1.6-2.3-3.2-4.5-4.7-6.6c-4.5-6.4-8.9-12.8-13.3-19.2c-2.1-3.1-1.3-7.2,1.8-9.3
		c2.9-2,6.9-1.4,9.1,1.4c2.5,3.2,4.9,6.4,7.3,9.6l0.7,1c1.1-0.8,2.1-1.5,3.2-2.1c2.5-1.4,5.5-1.5,8-0.2c0.5,0.3,1.2,0.2,1.6-0.2
		c0.9-0.7,1.9-1.4,2.9-2c2.6-1.5,5.8-1.5,8.4-0.1c0.3,0.3,0.8,0.3,1.2-0.1c4.8-4.3,9.7-2.1,13,0.9c4.6,4.2,8.7,8.8,12.5,13.7
		c3.2,4.2,5.3,9,6.2,14.2c0.1,0.8,0.4,1.5,0.8,2.1c2.9,5,1.6,11.4-3,15L71.1,76.5c-5.1,3.9-12.4,3-16.3-2c0,0,0,0,0-0.1
		c-1-1.3-1.8-3-3.1-3.9s-3.2-0.7-4.8-1.2c-3.1-1-6.2-2-9.2-3.2c-5.9-2.4-12.1-4-18.5-4.9c-3.7-0.5-5.4-3.1-4.3-6.7
		c1.2-4.1,4.9-7,9.2-7.2C26,47.4,28,47.3,30.3,47.3z M85.2,51.3c-0.8,0.7-1.6,1.3-2.4,1.9c-0.7,0.5-1.7,0.3-2.2-0.5
		c-0.1-0.1-0.1-0.2-0.2-0.4c-0.3-1,0-1.6,1.2-2.6c1.8-1.4,2.4-3.8,1.6-5.9c-1.2-3.4-3-6.5-5.3-9.2c-2.6-3.1-5.2-6.1-7.9-9
		c-1.4-1.5-2.9-2.9-4.6-4.1c-2.6-1.9-5-1.6-7.1,0.6l0.5,0.6l5.4,7c0.6,0.6,0.6,1.6,0,2.2c-0.1,0.1-0.3,0.2-0.4,0.3
		c-0.8,0.5-1.5,0.3-2.2-0.6c-2-2.5-3.9-5.1-5.8-7.6c-0.9-1.2-2.2-2.1-3.6-2.4c-2.6-0.5-4.4,1-6.2,2.6c0.3,0.5,0.6,0.9,0.9,1.3
		c2.4,3.1,4.8,6.2,7.1,9.3c0.3,0.4,0.6,0.9,0.7,1.4c0.1,0.7-0.3,1.4-1,1.6c-0.8,0.3-1.7,0-2.1-0.7c-2.8-3.7-5.6-7.4-8.5-11.1
		c-0.6-0.7-1.3-1.3-2.1-1.6c-2.4-1.2-5.3-0.3-7.5,2.3l5.1,6.7c1.9,2.5,3.9,5,5.8,7.6c0.3,0.5,0.4,1.1,0.3,1.7
		c-0.5,1.4-2,1.4-3.1,0.1c-2.7-3.5-5.5-7-8.2-10.6c-2.6-3.4-5.2-6.9-7.8-10.3c-1.8-2.3-3.5-4.6-5.3-6.8c-1.1-1.1-2.9-1.2-4.2-0.3
		c-1.3,1-1.7,2.7-0.9,4.1c1.1,1.8,2.3,3.5,3.5,5.2c1.9,2.8,3.9,5.6,5.9,8.4c2.7,3.8,5.3,7.6,8,11.4c1.8,2.4,3.7,4.8,5.5,7.2
		c0.6,0.7,0.5,1.8-0.2,2.4c0,0-0.1,0.1-0.1,0.1c-0.7,0.6-1.7,0.5-2.2-0.2c-0.1-0.1-0.1-0.2-0.2-0.3c-0.5-0.7-1-1.4-1.6-2.1
		c-0.3-0.3-0.7-0.5-1.1-0.6c-2.8,0-5.6,0-8.5,0.1c-2.8,0.2-5.2,2.2-5.9,4.9c-0.3,1.4,0,1.9,1.5,2.1c2.4,0.4,4.8,0.7,7.1,1.2
		c5,1.2,10,2.9,14.7,4.9c3.8,1.7,7.9,2.7,12,2.9c1.3,0,2.7-0.1,4.1-0.1c0.9-0.2,1.8,0.4,1.9,1.3c0,0.1,0,0.2,0,0.3
		c0.1,1-0.5,1.5-1.7,1.7l-1.7,0.2c0.5,0.7,1,1.3,1.4,1.9c2.7,3.6,7.9,4.4,11.5,1.6c0,0,0.1-0.1,0.1-0.1c4.7-3.6,9.4-7.3,14.2-10.8
		C87,60.3,87.9,55.1,85.2,51.3C85.2,51.3,85.2,51.3,85.2,51.3L85.2,51.3z"/>
</g>
</svg>
